<svg width="24" height="24" viewBox="0 0 24 24" fill="none" xmlns="http://www.w3.org/2000/svg">
<path fill-rule="evenodd" clip-rule="evenodd" d="M12 11.5C13.6569 11.5 15 10.1569 15 8.5C15 6.84315 13.6569 5.5 12 5.5C10.3431 5.5 9 6.84315 9 8.5C9 10.1569 10.3431 11.5 12 11.5ZM16.5 8.5C16.5 10.9853 14.4853 13 12 13C9.51472 13 7.5 10.9853 7.5 8.5C7.5 6.01472 9.51472 4 12 4C14.4853 4 16.5 6.01472 16.5 8.5Z" fill="black"/>
<path fill-rule="evenodd" clip-rule="evenodd" d="M17.5 20V18C17.5 17.2771 17.2469 16.6175 16.846 16.1593C16.4507 15.7075 15.9609 15.5 15.5 15.5H8.5C8.03912 15.5 7.54931 15.7075 7.15399 16.1593C6.75308 16.6175 6.5 17.2771 6.5 18V20H5V18C5 16.9391 5.36875 15.9217 6.02513 15.1716C6.6815 14.4214 7.57174 14 8.5 14H15.5C16.4283 14 17.3185 14.4214 17.9749 15.1716C18.6313 15.9217 19 16.9391 19 18V20H17.5Z" fill="black"/>
</svg>
