<svg width="24" height="24" viewBox="0 0 24 24" fill="none" xmlns="http://www.w3.org/2000/svg">
<path d="M10.5024 4.01517C14.0854 4.01517 16.9905 6.9196 16.9907 10.5025L16.9819 10.8365C16.9114 12.2287 16.4012 13.5047 15.5884 14.5298L20.0151 18.9566L18.9565 20.0152L14.5298 15.5884C13.4232 16.4659 12.0243 16.9908 10.5024 16.9908L10.1694 16.982C6.74132 16.8084 4.01514 13.9737 4.01514 10.5025C4.01535 6.91973 6.9197 4.01538 10.5024 4.01517ZM10.5024 5.51224C7.74656 5.51245 5.51242 7.74659 5.51221 10.5025C5.51221 13.2585 7.74642 15.4935 10.5024 15.4937C13.2586 15.4937 15.4937 13.2587 15.4937 10.5025C15.4934 7.74646 13.2585 5.51224 10.5024 5.51224Z" fill="black"/>
</svg>
